<svg xmlns="http://www.w3.org/2000/svg" width="42" height="42" viewBox="0 0 42 42">
  <g id="upload_shop_photo" transform="translate(-42 -343)">
    <g id="Rectangle_2534" data-name="Rectangle 2534" transform="translate(42 343)" fill="#f5f7fa" stroke="#afbed1" stroke-width="1" stroke-dasharray="4 2">
      <rect width="42" height="42" stroke="none"/>
      <rect x="0.5" y="0.5" width="41" height="41" fill="none"/>
    </g>
    <g id="shop" transform="translate(52.462 353.462)">
      <g id="Group_8312" data-name="Group 8312" transform="translate(16.587 17.404)">
        <g id="Group_8311" data-name="Group 8311">
          <path id="Path_50384" data-name="Path 50384" d="M406.409,426a.409.409,0,1,0,.409.409A.409.409,0,0,0,406.409,426Z" transform="translate(-406 -426)" fill="#4d4d4d"/>
        </g>
      </g>
      <g id="Group_8314" data-name="Group 8314">
        <g id="Group_8313" data-name="Group 8313">
          <path id="Path_50385" data-name="Path 50385" d="M18.221,1.938V1.226A1.227,1.227,0,0,0,17,0H3.922A1.227,1.227,0,0,0,2.7,1.226v.712C.032,6.859,0,6.713,0,6.945H0v.817A2.033,2.033,0,0,0,1.062,9.5V20.509a.409.409,0,0,0,.409.409H19.446a.409.409,0,0,0,.409-.409V9.5a2.056,2.056,0,0,0,1.062-1.741V6.945h0C20.917,6.711,20.86,6.811,18.221,1.938Zm1.6,4.6H17.29L15.928,2.451h1.643Zm-5.682.817h2.451v.409a1.226,1.226,0,0,1-2.451,0Zm-.062-.817-.681-4.085h1.674l1.362,4.085ZM3.513,1.226A.409.409,0,0,1,3.922.817H17a.409.409,0,0,1,.409.409v.409H3.513Zm9.8,6.128v.409a1.226,1.226,0,0,1-2.451,0V7.354Zm-2.451-.817V2.451h1.7l.681,4.085Zm-3.195,0,.681-4.085h1.7V6.537Zm2.377.817v.409a1.226,1.226,0,1,1-2.451,0V7.354ZM4.489,6.537,5.851,2.451H7.525L6.844,6.537Zm2.293.817v.409a1.226,1.226,0,0,1-2.451,0V7.354Zm-3.435-4.9H4.989L3.627,6.537H1.1ZM.817,7.762V7.354h2.7v.409A1.343,1.343,0,0,1,2.165,8.988a1.369,1.369,0,0,1-.534-.112A1.271,1.271,0,0,1,.817,7.762ZM8.416,20.1H4.33V16.587H8.416Zm0-4.33H4.33V12.256H8.416ZM19.038,20.1h-9.8V11.848a.409.409,0,0,0-.409-.409h-4.9a.409.409,0,0,0-.409.409V20.1H1.879V9.785a2.123,2.123,0,0,0,.286.02A2.252,2.252,0,0,0,3.656,9.22,2.209,2.209,0,0,0,3.9,8.958a2.04,2.04,0,0,0,3.288.028,2.041,2.041,0,0,0,3.268,0,2.041,2.041,0,0,0,3.268,0,2.04,2.04,0,0,0,3.288-.028,2.212,2.212,0,0,0,.246.262,2.252,2.252,0,0,0,1.491.584,2.114,2.114,0,0,0,.286-.02ZM20.1,7.762a1.272,1.272,0,0,1-.845,1.127,1.357,1.357,0,0,1-.5.1A1.343,1.343,0,0,1,17.4,7.762V7.354h2.7Z" fill="#4d4d4d"/>
        </g>
      </g>
      <g id="Group_8316" data-name="Group 8316" transform="translate(10.867 11.439)">
        <g id="Group_8315" data-name="Group 8315">
          <path id="Path_50386" data-name="Path 50386" d="M272.945,284.331h-.409v-3.922a.409.409,0,0,0-.409-.409h-4.9a.409.409,0,0,0-.409.409v3.922h-.409a.409.409,0,0,0,0,.817h6.537a.409.409,0,1,0,0-.817Zm-1.226,0h-4.085v-3.513h4.085Z" transform="translate(-266 -280)" fill="#4d4d4d"/>
        </g>
      </g>
      <g id="Group_8318" data-name="Group 8318" transform="translate(11.684 17.404)">
        <g id="Group_8317" data-name="Group 8317">
          <path id="Path_50387" data-name="Path 50387" d="M289.677,426h-3.268a.409.409,0,0,0,0,.817h3.268a.409.409,0,0,0,0-.817Z" transform="translate(-286 -426)" fill="#4d4d4d"/>
        </g>
      </g>
    </g>
  </g>
</svg>
