<svg xmlns="http://www.w3.org/2000/svg" width="42" height="42" viewBox="0 0 42 42">
  <g id="upload_proff" transform="translate(-42 -343)">
    <g id="Rectangle_2534" data-name="Rectangle 2534" transform="translate(42 343)" fill="#f5f7fa" stroke="#afbed1" stroke-width="1" stroke-dasharray="4 2">
      <rect width="42" height="42" stroke="none"/>
      <rect x="0.5" y="0.5" width="41" height="41" fill="none"/>
    </g>
    <g id="id-card" transform="translate(50.5 346.633)">
      <path id="Path_51610" data-name="Path 51610" d="M23.252,8H1.758A1.76,1.76,0,0,0,0,9.758V24.583a1.76,1.76,0,0,0,1.758,1.758H23.252a1.76,1.76,0,0,0,1.758-1.758V9.758A1.76,1.76,0,0,0,23.252,8Zm.924,16.583a.925.925,0,0,1-.924.924H1.758a.925.925,0,0,1-.924-.924V9.758a.925.925,0,0,1,.924-.924H23.252a.925.925,0,0,1,.924.924Z" transform="translate(0 0)" fill="#4d4d4d"/>
      <path id="Path_51611" data-name="Path 51611" d="M12.352,24.429l-1.516-.774v-.161a3.011,3.011,0,0,0,1.422-1.819,1.24,1.24,0,0,0,.662-1.1v-.417a1.243,1.243,0,0,0-.48-.979C12.18,17.6,11.08,16.8,9.168,16.8q-.136,0-.265.01a2.11,2.11,0,0,1-1.344-.308,1.708,1.708,0,0,1-.381-.331.5.5,0,0,0-.89.364c.018.156.044.337.083.536.08.406.08.406-.033.649-.043.092-.1.2-.157.356a4.655,4.655,0,0,0-.292,1.1,1.244,1.244,0,0,0-.473.974v.417a1.24,1.24,0,0,0,.662,1.1A3.009,3.009,0,0,0,7.5,23.493v.157l-1.571.774A1.783,1.783,0,0,0,5,25.99v.552c0,.335,0,1.118,4.168,1.118s4.168-.783,4.168-1.118v-.519A1.775,1.775,0,0,0,12.352,24.429Zm.151,2.02a9.077,9.077,0,0,1-3.335.378,9.077,9.077,0,0,1-3.335-.378V25.99a.943.943,0,0,1,.48-.826l1.608-.792a.741.741,0,0,0,.413-.662v-.752l-.252-.108a2.21,2.21,0,0,1-1.257-1.59l-.06-.222-.219-.068a.421.421,0,0,1-.3-.4v-.417a.416.416,0,0,1,.226-.365l.2-.1.023-.221A3.914,3.914,0,0,1,6.954,18.4c.055-.135.1-.237.141-.32a1.231,1.231,0,0,0,.157-.782,2.975,2.975,0,0,0,1.718.351c.065-.005.131-.008.2-.008,1.561,0,2.323.565,2.471,1.833l.026.218.194.1a.418.418,0,0,1,.226.366v.417a.42.42,0,0,1-.3.395l-.219.068-.06.222a2.21,2.21,0,0,1-1.257,1.59L10,22.958v.755a.734.734,0,0,0,.4.657l1.574.8a.945.945,0,0,1,.526.85Z" transform="translate(-2.916 -4.655)" fill="#4d4d4d"/>
      <path id="Path_51612" data-name="Path 51612" d="M29.417,21.834h4.168a.417.417,0,1,0,0-.834H29.417a.417.417,0,1,0,0,.834Z" transform="translate(-16.912 -7.581)" fill="#4d4d4d"/>
      <path id="Path_51613" data-name="Path 51613" d="M43.417,21.834h.417a.417.417,0,1,0,0-.834h-.417a.417.417,0,1,0,0,.834Z" transform="translate(-25.076 -7.581)" fill="#4d4d4d"/>
      <path id="Path_51614" data-name="Path 51614" d="M29.834,38h-.417a.417.417,0,1,0,0,.834h.417a.417.417,0,0,0,0-.834Z" transform="translate(-16.912 -17.495)" fill="#4d4d4d"/>
      <path id="Path_51615" data-name="Path 51615" d="M35.251,38h-.834a.417.417,0,1,0,0,.834h.834a.417.417,0,1,0,0-.834Z" transform="translate(-19.828 -17.495)" fill="#4d4d4d"/>
      <path id="Path_51616" data-name="Path 51616" d="M40.834,38h-.417a.417.417,0,1,0,0,.834h.417a.417.417,0,1,0,0-.834Z" transform="translate(-23.327 -17.495)" fill="#4d4d4d"/>
      <path id="Path_51617" data-name="Path 51617" d="M46.251,38h-.834a.417.417,0,0,0,0,.834h.834a.417.417,0,1,0,0-.834Z" transform="translate(-26.242 -17.495)" fill="#4d4d4d"/>
      <path id="Path_51618" data-name="Path 51618" d="M51.121,38.128a.417.417,0,1,0,.592,0A.436.436,0,0,0,51.121,38.128Z" transform="translate(-29.741 -17.502)" fill="#4d4d4d"/>
      <path id="Path_51619" data-name="Path 51619" d="M38.587,27h-9.17a.417.417,0,0,0,0,.834h9.17a.417.417,0,1,0,0-.834Z" transform="translate(-16.912 -11.08)" fill="#4d4d4d"/>
      <path id="Path_51620" data-name="Path 51620" d="M38.587,33h-9.17a.417.417,0,1,0,0,.834h9.17a.417.417,0,1,0,0-.834Z" transform="translate(-16.912 -14.579)" fill="#4d4d4d"/>
    </g>
  </g>
</svg>
