<svg xmlns="http://www.w3.org/2000/svg" width="42" height="42" viewBox="0 0 42 42">
  <g id="upload_shop" transform="translate(-42 -343)">
    <g id="Rectangle_2534" data-name="Rectangle 2534" transform="translate(42 343)" fill="#f5f7fa" stroke="#afbed1" stroke-width="1" stroke-dasharray="4 2">
      <rect width="42" height="42" stroke="none"/>
      <rect x="0.5" y="0.5" width="41" height="41" fill="none"/>
    </g>
    <g id="profile-problem" transform="translate(48.869 345.541)">
      <path id="Path_51622" data-name="Path 51622" d="M120.461,411.591a.445.445,0,0,1-.445-.445,3.12,3.12,0,0,1,3.116-3.115.445.445,0,1,1,0,.89,2.228,2.228,0,0,0-2.226,2.225A.445.445,0,0,1,120.461,411.591Zm0,0" transform="translate(-113.324 -385.328)" fill="#4d4d4d"/>
      <path id="Path_51623" data-name="Path 51623" d="M170.242,408.922h-1.78a.445.445,0,0,1,0-.89h1.78a.445.445,0,1,1,0,.89Zm0,0" transform="translate(-158.653 -385.328)" fill="#4d4d4d"/>
      <path id="Path_51624" data-name="Path 51624" d="M120.461,460.418a.445.445,0,0,1-.445-.445v-1.208a.445.445,0,1,1,.89,0v1.208A.445.445,0,0,1,120.461,460.418Zm0,0" transform="translate(-113.324 -432.819)" fill="#4d4d4d"/>
      <path id="Path_51625" data-name="Path 51625" d="M315.132,411.591a.445.445,0,0,1-.445-.445,2.228,2.228,0,0,0-2.226-2.225.445.445,0,0,1,0-.89,3.12,3.12,0,0,1,3.116,3.115A.445.445,0,0,1,315.132,411.591Zm0,0" transform="translate(-294.641 -385.328)" fill="#4d4d4d"/>
      <path id="Path_51626" data-name="Path 51626" d="M280.461,408.922a.445.445,0,1,1,0-.89h1.78a.445.445,0,1,1,0,.89Zm0,0" transform="translate(-264.421 -385.328)" fill="#4d4d4d"/>
      <path id="Path_51627" data-name="Path 51627" d="M360.461,460.418a.445.445,0,0,1-.445-.445v-1.208a.445.445,0,1,1,.89,0v1.208A.445.445,0,0,1,360.461,460.418Zm0,0" transform="translate(-339.97 -432.819)" fill="#4d4d4d"/>
      <path id="Path_51628" data-name="Path 51628" d="M148.034,496.921H136.461a.445.445,0,0,1,0-.89h11.573a.445.445,0,0,1,0,.89Zm0,0" transform="translate(-128.433 -468.431)" fill="#4d4d4d"/>
      <path id="Path_51629" data-name="Path 51629" d="M200.461,384.748a.445.445,0,0,1-.445-.445v-1.425a.445.445,0,0,1,.89,0V384.3A.445.445,0,0,1,200.461,384.748Zm0,0" transform="translate(-188.872 -361.155)" fill="#4d4d4d"/>
      <path id="Path_51630" data-name="Path 51630" d="M280.461,384.748a.445.445,0,0,1-.445-.445v-1.424a.445.445,0,1,1,.89,0V384.3A.445.445,0,0,1,280.461,384.748Zm0,0" transform="translate(-264.421 -361.154)" fill="#4d4d4d"/>
      <path id="Path_51631" data-name="Path 51631" d="M157.357,309.818a5.347,5.347,0,0,1-5.341-5.341.445.445,0,1,1,.89,0,4.451,4.451,0,0,0,8.9,0,.445.445,0,1,1,.89,0A5.347,5.347,0,0,1,157.357,309.818Zm0,0" transform="translate(-143.543 -287.114)" fill="#4d4d4d"/>
      <path id="Path_51632" data-name="Path 51632" d="M152.461,236.928a.445.445,0,0,1-.445-.445v-4.007a.445.445,0,0,1,.89,0v4.007A.445.445,0,0,1,152.461,236.928Zm0,0" transform="translate(-143.543 -219.121)" fill="#4d4d4d"/>
      <path id="Path_51633" data-name="Path 51633" d="M328.461,236.929a.445.445,0,0,1-.445-.445v-4.007a.445.445,0,1,1,.89,0v4.007A.445.445,0,0,1,328.461,236.929Zm0,0" transform="translate(-309.75 -219.121)" fill="#4d4d4d"/>
      <path id="Path_51634" data-name="Path 51634" d="M290.687,195.147a.445.445,0,0,1-.445-.445,1.782,1.782,0,0,0-1.78-1.78.445.445,0,1,1,0-.89,2.673,2.673,0,0,1,2.671,2.671A.445.445,0,0,1,290.687,195.147Zm0,0" transform="translate(-271.976 -181.346)" fill="#4d4d4d"/>
      <path id="Path_51635" data-name="Path 51635" d="M288.461,162.7a.445.445,0,0,1-.445-.445v-1.78a.445.445,0,1,1,.89,0v1.78A.445.445,0,0,1,288.461,162.7Zm0,0" transform="translate(-271.976 -151.127)" fill="#4d4d4d"/>
      <path id="Path_51636" data-name="Path 51636" d="M228.022,160.921h-3.561a.445.445,0,0,1,0-.89h3.561a.445.445,0,0,1,0,.89Zm0,0" transform="translate(-211.537 -151.127)" fill="#4d4d4d"/>
      <path id="Path_51637" data-name="Path 51637" d="M152.461,164.935a.445.445,0,0,1-.445-.445,4.456,4.456,0,0,1,4.451-4.451.445.445,0,1,1,0,.89,3.565,3.565,0,0,0-3.561,3.561A.445.445,0,0,1,152.461,164.935Zm0,0" transform="translate(-143.543 -151.134)" fill="#4d4d4d"/>
      <path id="Path_51638" data-name="Path 51638" d="M305.794,250.254a.445.445,0,0,1-.315-.13l-1.335-1.335a.445.445,0,0,1,.629-.629l1.335,1.335a.445.445,0,0,1-.315.76Zm0,0" transform="translate(-287.083 -234.227)" fill="#4d4d4d"/>
      <path id="Path_51639" data-name="Path 51639" d="M180.021,249.8a8.833,8.833,0,0,1-3.772-.943.445.445,0,0,1,.422-.784,7.121,7.121,0,0,0,6.7,0,.445.445,0,0,1,.422.784,8.818,8.818,0,0,1-3.772.944Zm0,0" transform="translate(-166.207 -234.223)" fill="#4d4d4d"/>
      <path id="Path_51640" data-name="Path 51640" d="M152.458,250.254a.445.445,0,0,1-.315-.76l1.335-1.335a.445.445,0,1,1,.629.629l-1.335,1.335A.444.444,0,0,1,152.458,250.254Zm0,0" transform="translate(-143.54 -234.227)" fill="#4d4d4d"/>
      <path id="Path_51641" data-name="Path 51641" d="M201.349,409.819a.444.444,0,0,1-.315-.13l-.89-.89a.445.445,0,1,1,.629-.629l.89.89a.445.445,0,0,1-.315.76Zm0,0" transform="translate(-188.87 -385.335)" fill="#4d4d4d"/>
      <path id="Path_51642" data-name="Path 51642" d="M216.464,417.359a.445.445,0,0,1-.141-.867l1.335-.445a.445.445,0,1,1,.282.844l-1.335.445A.454.454,0,0,1,216.464,417.359Zm0,0" transform="translate(-203.985 -392.875)" fill="#4d4d4d"/>
      <path id="Path_51643" data-name="Path 51643" d="M264.458,409.819a.445.445,0,0,1-.315-.76l.89-.89a.445.445,0,0,1,.629.629l-.89.89A.444.444,0,0,1,264.458,409.819Zm0,0" transform="translate(-249.309 -385.335)" fill="#4d4d4d"/>
      <path id="Path_51644" data-name="Path 51644" d="M241.8,417.359a.449.449,0,0,1-.141-.023l-1.335-.445a.445.445,0,0,1,.282-.844l1.335.445a.445.445,0,0,1-.141.867Zm0,0" transform="translate(-226.65 -392.876)" fill="#4d4d4d"/>
      <path id="Path_51645" data-name="Path 51645" d="M344.461,481.812a.445.445,0,0,1,0-.89.445.445,0,0,0,.445-.445.445.445,0,1,1,.89,0A1.337,1.337,0,0,1,344.461,481.812Zm0,0" transform="translate(-324.86 -453.322)" fill="#4d4d4d"/>
      <path id="Path_51646" data-name="Path 51646" d="M121.351,481.812a1.337,1.337,0,0,1-1.335-1.335.445.445,0,1,1,.89,0,.445.445,0,0,0,.445.445.445.445,0,0,1,0,.89Zm0,0" transform="translate(-113.324 -453.322)" fill="#4d4d4d"/>
      <path id="Path_51647" data-name="Path 51647" d="M240.663,456.921a.445.445,0,0,1,0-.89h0a.445.445,0,0,1,0,.89Zm0,0" transform="translate(-226.835 -430.657)" fill="#4d4d4d"/>
    </g>
  </g>
</svg>
